<?xml version="1.0" standalone="no"?>
<!DOCTYPE svg PUBLIC "-//W3C//DTD SVG 20010904//EN"
 "http://www.w3.org/TR/2001/REC-SVG-20010904/DTD/svg10.dtd">
<svg version="1.0" xmlns="http://www.w3.org/2000/svg"
 width="260.000000pt" height="260.000000pt" viewBox="0 0 260.000000 260.000000"
 preserveAspectRatio="xMidYMid meet">
<metadata>
Created by potrace 1.11, written by Peter Selinger 2001-2013
</metadata>
<g transform="translate(0.000000,260.000000) scale(0.100000,-0.100000)"
fill="#000000" stroke="none">
<path d="M363 2586 c-168 -41 -314 -189 -352 -357 -6 -24 -10 -190 -11 -369
l-1 -324 33 30 c18 17 81 77 140 134 161 154 239 209 330 229 36 9 50 7 84 -9
46 -23 69 -59 104 -167 42 -130 118 -193 245 -201 63 -4 80 -1 126 20 106 50
162 135 163 247 0 140 -68 222 -231 275 -60 20 -112 72 -115 114 -4 83 2 119
36 186 35 70 52 94 122 169 l36 37 -329 -1 c-226 0 -344 -5 -380 -13z"/>
<path d="M1340 2596 c0 -8 159 -158 233 -219 146 -122 287 -172 371 -132 45
21 68 53 91 125 33 102 95 165 191 193 l49 14 -45 10 c-42 10 -890 18 -890 9z"/>
<path d="M2557 2218 c-25 -85 -87 -145 -185 -178 -89 -30 -120 -56 -136 -112
-17 -57 -11 -100 25 -177 43 -93 106 -176 229 -303 l110 -113 -3 440 c-3 372
-7 489 -20 502 -1 1 -10 -25 -20 -59z"/>
<path d="M1728 1214 c-183 -64 -242 -305 -109 -447 32 -36 83 -62 169 -89 48
-14 77 -31 106 -59 37 -37 38 -41 34 -93 -9 -111 -64 -184 -398 -522 -3 -3
155 -4 350 -2 l355 3 63 27 c109 46 197 127 246 224 52 103 56 132 56 487 0
180 -1 327 -3 327 -2 0 -27 -23 -56 -50 -30 -28 -82 -71 -116 -95 -184 -132
-284 -106 -339 86 -36 128 -128 208 -249 215 -41 3 -78 -2 -109 -12z"/>
<path d="M777 1079 c-105 -16 -199 -104 -222 -209 -42 -191 -267 -164 -508 59
l-48 44 1 -280 c1 -310 8 -356 62 -452 58 -102 186 -201 293 -227 17 -4 162
-9 323 -11 l293 -4 -61 73 c-201 238 -210 413 -25 472 108 34 171 93 199 188
57 189 -109 376 -307 347z"/>
</g>
</svg>
