<?xml version="1.0" standalone="no"?>
<!DOCTYPE svg PUBLIC "-//W3C//DTD SVG 20010904//EN"
 "http://www.w3.org/TR/2001/REC-SVG-20010904/DTD/svg10.dtd">
<svg version="1.0" xmlns="http://www.w3.org/2000/svg"
 width="500.000000pt" height="500.000000pt" viewBox="0 0 500.000000 500.000000"
 preserveAspectRatio="xMidYMid meet">
<metadata>
Created by potrace 1.11, written by Peter Selinger 2001-2013
</metadata>
<g transform="translate(0.000000,500.000000) scale(0.100000,-0.100000)"
fill="#000000" stroke="none">
<path d="M747 4984 c-368 -66 -667 -368 -732 -739 -12 -72 -15 -196 -15 -692
l0 -605 248 240 c327 318 423 397 567 470 159 80 274 82 362 7 60 -51 81 -90
138 -259 57 -171 101 -247 179 -308 107 -85 209 -120 347 -119 224 1 416 141
491 359 18 53 23 88 22 167 0 121 -23 198 -90 297 -74 109 -162 166 -346 222
-112 34 -164 73 -203 151 -27 55 -30 69 -30 160 1 110 14 163 70 275 48 95
123 196 221 299 l86 91 -618 -1 c-485 -1 -636 -4 -697 -15z"/>
<path d="M2730 4840 c345 -334 558 -485 760 -536 84 -21 199 -15 256 14 83 42
125 102 163 232 64 213 205 349 406 391 58 11 59 12 30 21 -117 35 -170 37
-980 37 l-800 0 165 -159z"/>
<path d="M4940 4363 c0 -44 -28 -130 -63 -198 -67 -125 -175 -203 -359 -259
-110 -33 -163 -73 -203 -151 -27 -53 -30 -67 -29 -149 3 -221 136 -438 507
-827 l202 -212 3 124 c1 68 1 444 0 834 -4 689 -4 712 -25 783 -24 83 -33 98
-33 55z"/>
<path d="M3366 2349 c-124 -29 -272 -146 -334 -265 -107 -205 -72 -451 89
-616 66 -67 155 -114 293 -154 294 -85 367 -227 246 -479 -75 -156 -183 -285
-580 -688 l-145 -148 650 3 c631 4 652 4 727 25 327 92 569 334 661 661 21 75
21 96 25 731 l3 654 -110 -105 c-227 -218 -418 -335 -562 -346 -84 -6 -130 9
-187 61 -54 51 -81 102 -122 237 -75 244 -185 367 -379 424 -60 18 -210 20
-275 5z"/>
<path d="M1441 2064 c-75 -20 -166 -71 -223 -124 -64 -60 -109 -139 -147 -259
-49 -153 -101 -215 -205 -246 -102 -30 -210 -13 -354 55 -144 69 -239 136
-473 338 l-39 34 0 -510 c0 -561 4 -616 60 -760 96 -248 284 -436 532 -532
146 -56 200 -60 763 -58 l509 3 -61 67 c-317 350 -429 663 -306 850 35 52 87
84 194 119 135 44 206 84 270 150 109 111 163 278 141 433 -30 211 -186 386
-392 441 -69 19 -199 18 -269 -1z"/>
</g>
</svg>
