<?xml version="1.0" encoding="utf-8"?>
<!-- Generator: Adobe Illustrator 19.2.1, SVG Export Plug-In . SVG Version: 6.00 Build 0)  -->
<svg version="1.1" id="Layer_1" xmlns="http://www.w3.org/2000/svg" xmlns:xlink="http://www.w3.org/1999/xlink" x="0px" y="0px"
	 viewBox="0 0 257.8 84.3" style="enable-background:new 0 0 257.8 84.3;" xml:space="preserve">
<style type="text/css">
	.st0{fill:#24C3ED;}
	.st1{fill:#FFFFFF;}
</style>
<g>
	<path class="st0" d="M68,58.7c-6.2,4.1-8,0.1-8.7-2.6c-0.3-1-0.6-2-1.1-3c-0.3-0.5-0.6-1-1.1-1.4c-1.3-1.3-3-2.1-4.7-2.2
		c-2.3-0.2-4.6,0.5-6.4,2.2c-0.2,0.2-0.4,0.5-0.6,0.7c-1.9,2.5-2.2,5.8-0.8,8.5c0.4,0.7,0.8,1.3,1.4,1.9c1.2,1.2,2.8,1.8,4.4,2.2
		c0.6,0.2,1.3,0.4,2,0.7c2.3,1.1,3.9,3.4,0.2,8.6l-0.2,0.1l0,0l0,0h0l0,0v0.2c-0.9,1.3-2.2,2.7-3.9,4.4c-1,1-1.8,1.9-2.7,2.7
		l-2.6,2.6h9.1h7.8c2.3,0,4.6-0.6,6.5-1.7h0c0.4-0.2,0.9-0.5,1.3-0.8c3.5-2.4,5.7-6.5,5.7-11v-2.1v-6.6v-8.3
		c-0.1,0.1-0.3,0.3-0.4,0.4C71.2,56.3,69.5,57.8,68,58.7z"/>
	<path class="st0" d="M72.9,19.5c-0.1,1.9-0.8,3.7-2.3,5.2c-0.8,0.8-1.7,1.3-2.7,1.6c-0.6,0.2-1.1,0.4-1.7,0.5
		c-0.6,0.2-1.1,0.4-1.6,0.8c-1.1,0.9-1.9,2.4-1.4,4.6c0.4,2.1,1.8,4.8,4.7,8.3c0.7,0.9,1.6,1.7,2.5,2.7c0.6,0.6,1.2,1.2,1.8,1.8
		c0.5,0.5,1,1,1.5,1.5v-2.4V32.8v-6.6v-2.1C73.7,22.5,73.4,20.9,72.9,19.5z"/>
	<path class="st0" d="M25.6,54c-1.4-0.4-2.9-0.5-4.3-0.1c-0.9,0.2-1.7,0.6-2.5,1.1c-0.4,0.3-0.7,0.5-1,0.9c-1.1,1.1-1.6,2.4-2,3.8
		c-0.1,0.2-0.1,0.4-0.2,0.6c-0.5,2-2.4,3.8-5.9,2.9c-1.1-0.3-2.4-0.8-3.9-1.8c-1.7-1-3.6-2.5-5.7-4.6v5.3v6.6v0v2.1
		c0,4.6,2.3,8.6,5.7,11c0.4,0.3,0.8,0.6,1.3,0.8c0,0,0,0,0,0c1.9,1.1,4.1,1.7,6.5,1.7h7.8h6.2c-4-4.2-5.7-7.5-6.1-9.9
		c0,0,0-0.1,0-0.1c0-0.3-0.1-0.5-0.1-0.8V73c0.1-2.2,1.6-3.5,3.1-3.9c1.5-0.4,3.1-1,4.4-2.2c1.4-1.4,2.1-3.1,2.2-4.8
		c0.2-2.2-0.6-4.5-2.3-6.2C27.9,55,26.8,54.4,25.6,54z"/>
	<path class="st0" d="M52.4,21.1c0.4,0,0.7,0.1,1,0c2.3-0.1,3.5-1.6,4-3.2c0-0.1,0.1-0.2,0.1-0.4c0,0,0,0,0,0c0.4-1.4,1-2.9,2.1-4
		c1.4-1.4,3.2-2.1,5-2.3c-1.4-0.5-2.9-0.7-4.4-0.7h-7.8H38.5h-0.7l0.3,0.3l1,1c0.3,0.2,0.7,0.6,2,1.8c0.2,0.2,0.4,0.4,0.6,0.6
		c0,0,0,0,0,0c4.3,4.2,7.6,6.1,10.1,6.6C52,21,52.2,21,52.4,21.1z"/>
	<path class="st0" d="M32.5,27.2c-0.2-0.2-0.4-0.4-0.6-0.5c-0.5-0.4-1-0.7-1.6-0.9c-0.7-0.3-1.4-0.5-2.1-0.7c-1-0.3-2.3-0.8-2.9-2.2
		c-0.4-0.9-0.6-2.1-0.3-3.7c0-0.2,0.1-0.5,0.2-0.7c0,0,0,0,0,0c0.2-0.7,0.5-1.6,1-2.5c0.8-1.4,2.1-3.1,4-4.9
		c0.1-0.1,0.2-0.2,0.3-0.3h-9.1h-7.8c-2.4,0-4.6,0.6-6.5,1.7c0,0,0,0,0,0c-0.4,0.2-0.8,0.5-1.3,0.8C2.3,15.5,0,19.5,0,24.1v2.1v6.6
		v8l2-1.9c1-0.9,2.1-2,3.3-3.2c0.2-0.2,0.3-0.3,0.5-0.5c1.5-1.5,2.8-2.6,4-3.5c6.9-5.1,8.8-0.8,9.6,2c0.4,1.5,0.9,2.9,2,4.1
		c0,0,0,0,0,0c0.1,0.1,0.1,0.1,0.2,0.2c0,0,0.1,0.1,0.1,0.1c3,2.9,7.9,2.9,10.9-0.1c2-2,2.7-4.8,2.1-7.3
		C34.2,29.5,33.6,28.2,32.5,27.2z"/>
</g>
<g>
	<path class="st1" d="M99.9,34.3c-1.5,0-3-0.3-4.6-0.9c-2.1-0.8-3.5-1.7-4.5-2.6c-0.2-0.2-0.3-0.4-0.2-0.6c0.1-0.2,0.2-0.4,0.4-0.4
		c0.2-0.1,0.4,0,0.6,0.2c0.2,0.2,0.6,0.5,1.1,0.9c0.5,0.4,1.5,0.9,2.9,1.4c1.4,0.6,2.8,0.9,4.2,0.9c2.2,0,4.1-0.6,5.6-1.7
		c1.5-1.1,2.3-2.4,2.3-4c0-1.2-0.4-2.2-1.1-2.8c-0.8-0.7-1.6-1.2-2.5-1.5c-1.1-0.4-2.3-0.7-3.5-1c-1.2-0.3-2.1-0.5-2.6-0.6
		c-0.5-0.1-1.2-0.4-2.1-0.8c-0.9-0.4-1.6-0.8-2-1.2c-1.1-1-1.7-2.4-1.7-3.9c0-1.6,0.7-2.9,2.2-4.1c1.5-1.1,3.1-1.7,4.9-1.7
		c1.8,0,3.3,0.3,4.5,0.8c1.8,0.7,2.9,1.4,3.4,2.2c0.2,0.2,0.2,0.4,0.1,0.6c-0.1,0.2-0.3,0.4-0.5,0.4c-0.2,0-0.4,0-0.6-0.2
		c-1.7-1.7-3.8-2.5-6.5-2.5c-1.7,0-3.2,0.4-4.5,1.3c-1.2,0.9-1.9,2-1.9,3.2c0,1.7,0.8,2.9,2.3,3.6c1.2,0.6,2.6,1.1,4.1,1.4
		c1.6,0.4,2.7,0.6,3.2,0.8c0.6,0.2,1.3,0.4,2.2,0.8c0.9,0.3,1.5,0.7,2,1.1c1.2,1.1,1.8,2.5,1.8,4.3c0,1.8-0.9,3.3-2.7,4.7
		C104.6,33.6,102.5,34.3,99.9,34.3z"/>
	<path class="st1" d="M116.3,4.4V3.2c0-0.4,0.2-0.6,0.6-0.6c0.4,0,0.6,0.2,0.6,0.6v1.2c0,0.2-0.1,0.3-0.2,0.4
		c-0.1,0.1-0.3,0.2-0.4,0.2C116.5,4.9,116.3,4.7,116.3,4.4z M116.3,33.6V10.9c0-0.4,0.2-0.6,0.6-0.6c0.4,0,0.6,0.2,0.6,0.6v22.8
		c0,0.2-0.1,0.3-0.2,0.4c-0.1,0.1-0.3,0.2-0.4,0.2C116.5,34.3,116.3,34,116.3,33.6z"/>
	<path class="st1" d="M149.2,33.8l-0.1,0.2c-0.1,0.1-0.3,0.2-0.5,0.2c-0.4,0-0.6-0.2-0.6-0.6V20c0-2.3-0.8-4.3-2.5-6
		c-1.6-1.6-3.6-2.5-5.9-2.5c-2.3,0-4.2,0.8-5.9,2.4s-2.5,3.5-2.5,5.7v14l-0.1,0.4l-0.1,0c-0.1,0.1-0.2,0.1-0.3,0.1h-0.1
		c-0.4-0.1-0.5-0.3-0.5-0.6V20c0-0.3,0-0.7,0.1-1.2v-7.9c0-0.4,0.2-0.6,0.6-0.6s0.6,0.2,0.6,0.6v4.4c0.8-1.5,2-2.7,3.5-3.6
		s3.2-1.3,5.1-1.3c1.9,0,3.7,0.6,5.3,1.7c1.6,1.2,2.8,2.7,3.5,4.5c0.7-1.9,1.9-3.4,3.5-4.5c1.6-1.2,3.5-1.7,5.6-1.7
		c2.6,0,4.9,0.9,6.8,2.8c1.9,1.9,2.8,4.2,2.8,6.9v13.7c0,0.4-0.2,0.6-0.6,0.6c-0.2,0-0.3-0.1-0.4-0.2c-0.1-0.1-0.2-0.3-0.2-0.4V20
		c0-2.3-0.8-4.3-2.4-6c-1.6-1.6-3.6-2.5-5.9-2.5c-2.3,0-4.2,0.8-5.9,2.4c-1.6,1.6-2.5,3.5-2.5,5.7v14
		C149.3,33.7,149.2,33.8,149.2,33.8z"/>
	<path class="st1" d="M176.5,44.1V10.9c0-0.4,0.2-0.6,0.6-0.6s0.6,0.2,0.6,0.6v5.9c0.9-2,2.3-3.6,4.2-4.8c1.8-1.2,3.9-1.8,6-1.8
		c3.2,0,6,1.1,8.2,3.4c2.2,2.3,3.4,5.1,3.4,8.4s-1.1,6.1-3.4,8.4c-2.2,2.3-5,3.5-8.2,3.5c-2.2,0-4.2-0.6-6-1.8
		c-1.8-1.2-3.2-2.8-4.2-4.7v16.6c0,0.4-0.2,0.6-0.6,0.6S176.5,44.5,176.5,44.1z M177.7,21.7v0.4c0,2.9,1,5.4,3,7.5
		c2,2.1,4.4,3.1,7.2,3.1s5.2-1,7.2-3.1c2-2.1,3-4.6,3-7.5c0-2.9-1-5.4-3-7.5c-2-2.1-4.4-3.1-7.2-3.1c-2.8,0-5.1,1-7.1,3
		C178.9,16.5,177.8,18.9,177.7,21.7z"/>
	<path class="st1" d="M209.1,0.6c0-0.4,0.2-0.6,0.6-0.6s0.6,0.2,0.6,0.6v33c0,0.4-0.2,0.6-0.6,0.6s-0.6-0.2-0.6-0.6V0.6z"/>
	<path class="st1" d="M236.9,10.8c0-0.1,0.1-0.3,0.2-0.4c0.1-0.1,0.3-0.2,0.4-0.2h0.1h0l0.1,0c0.2,0.2,0.3,0.4,0.3,0.6v22
		c0,3.1-1.1,5.7-3.3,8c-2.2,2.2-4.8,3.3-8,3.3c-1.7,0-3.3-0.4-4.9-1.2c-0.4-0.2-0.5-0.4-0.2-0.8c0.1-0.4,0.4-0.5,0.7-0.3
		c1.4,0.7,2.9,1.1,4.4,1.1c2.8,0,5.1-1,7.1-2.9c2-2,2.9-4.3,2.9-7.1v-3.6c-0.8,1.5-1.9,2.7-3.4,3.6c-1.5,0.9-3.1,1.3-4.9,1.3
		c-2.7,0-5-0.9-6.8-2.8c-1.9-1.9-2.8-4.1-2.8-6.8V10.9c0-0.4,0.2-0.6,0.6-0.6c0.2,0,0.3,0.1,0.4,0.2c0.1,0.1,0.2,0.3,0.2,0.4v13.7
		c0,2.3,0.8,4.3,2.5,5.9c1.6,1.6,3.6,2.4,5.9,2.4c2.3,0,4.2-0.8,5.8-2.3c1.6-1.6,2.4-3.5,2.5-5.7V10.8z"/>
</g>
<g>
	<path class="st0" d="M93.5,83.2V53.3c0-0.3,0.1-0.6,0.3-0.8c0.2-0.2,0.5-0.3,0.8-0.3h9.1c2.5,0,4.7,0.9,6.4,2.7
		c1.8,1.8,2.7,3.9,2.7,6.5s-0.9,4.7-2.7,6.5c-1.8,1.8-3.9,2.7-6.4,2.7l-7.9,0.1v12.6c0,0.3-0.1,0.6-0.3,0.8
		c-0.2,0.2-0.5,0.3-0.8,0.3s-0.6-0.1-0.8-0.3C93.6,83.8,93.5,83.5,93.5,83.2z M95.8,68.4h7.9c1.9,0,3.5-0.7,4.9-2.1
		c1.4-1.4,2-3,2-4.9s-0.7-3.5-2-4.9c-1.4-1.4-3-2-4.9-2h-7.9V68.4z"/>
	<path class="st0" d="M120.3,83.2V53.3c0-0.3,0.1-0.6,0.3-0.8c0.2-0.2,0.5-0.3,0.8-0.3h16.5c0.3,0,0.6,0.1,0.8,0.3
		c0.2,0.2,0.3,0.5,0.3,0.8c0,0.3-0.1,0.6-0.3,0.8c-0.2,0.2-0.5,0.3-0.8,0.3h-15.4v12.7H136c0.3,0,0.6,0.1,0.8,0.3
		c0.2,0.2,0.3,0.5,0.3,0.8c0,0.3-0.1,0.6-0.3,0.8c-0.2,0.2-0.5,0.3-0.8,0.3h-13.4v12.7h15.4c0.3,0,0.6,0.1,0.8,0.3
		c0.2,0.2,0.3,0.5,0.3,0.8s-0.1,0.6-0.3,0.8c-0.2,0.2-0.5,0.3-0.8,0.3h-16.6c-0.3,0-0.5-0.1-0.7-0.3
		C120.4,83.8,120.3,83.5,120.3,83.2z"/>
	<path class="st0" d="M146.1,68.1c0-4.5,1.5-8.4,4.5-11.5c3-3.2,6.6-4.7,10.9-4.7c4.3,0,7.9,1.6,10.9,4.7s4.5,7,4.5,11.5
		c0,4.5-1.5,8.4-4.5,11.5c-3,3.2-6.6,4.7-10.9,4.7c-4.3,0-7.9-1.6-10.9-4.7C147.6,76.4,146.1,72.6,146.1,68.1z M161.5,54.1
		c-3.6,0-6.7,1.3-9.3,4c-2.6,2.7-3.9,6-3.9,9.9s1.3,7.3,3.9,10c2.6,2.7,5.7,4.1,9.3,4.1c3.6,0,6.7-1.4,9.3-4.1s3.9-6,3.9-9.9
		c0-3.9-1.3-7.3-3.9-10C168.2,55.4,165.1,54.1,161.5,54.1z"/>
	<path class="st0" d="M186.5,83.2V53.3c0-0.3,0.1-0.6,0.3-0.8c0.2-0.2,0.5-0.3,0.8-0.3h9.1c2.5,0,4.7,0.9,6.4,2.7
		c1.8,1.8,2.7,3.9,2.7,6.5s-0.9,4.7-2.7,6.5c-1.8,1.8-3.9,2.7-6.4,2.7l-7.9,0.1v12.6c0,0.3-0.1,0.6-0.3,0.8
		c-0.2,0.2-0.5,0.3-0.8,0.3c-0.3,0-0.6-0.1-0.8-0.3C186.6,83.8,186.5,83.5,186.5,83.2z M188.7,68.4h7.9c1.9,0,3.5-0.7,4.9-2.1
		c1.4-1.4,2-3,2-4.9s-0.7-3.5-2-4.9c-1.4-1.4-3-2-4.9-2h-7.9V68.4z"/>
	<path class="st0" d="M230.9,84.3h-16.5c-0.3,0-0.6-0.1-0.8-0.3c-0.2-0.2-0.3-0.5-0.3-0.8V53.3c0-0.3,0.1-0.6,0.3-0.8
		c0.2-0.2,0.5-0.3,0.8-0.3c0.3,0,0.6,0.1,0.8,0.3c0.2,0.2,0.3,0.5,0.3,0.8v28.8h15.4c0.3,0,0.6,0.1,0.8,0.3c0.2,0.2,0.3,0.5,0.3,0.8
		c0,0.3-0.1,0.6-0.3,0.8C231.4,84.2,231.2,84.3,230.9,84.3z"/>
	<path class="st0" d="M239.1,83.2V53.3c0-0.3,0.1-0.6,0.3-0.8c0.2-0.2,0.5-0.3,0.8-0.3h16.5c0.3,0,0.6,0.1,0.8,0.3
		c0.2,0.2,0.3,0.5,0.3,0.8c0,0.3-0.1,0.6-0.3,0.8s-0.5,0.3-0.8,0.3h-15.4v12.7h13.4c0.3,0,0.6,0.1,0.8,0.3c0.2,0.2,0.3,0.5,0.3,0.8
		c0,0.3-0.1,0.6-0.3,0.8c-0.2,0.2-0.5,0.3-0.8,0.3h-13.4v12.7h15.4c0.3,0,0.6,0.1,0.8,0.3s0.3,0.5,0.3,0.8s-0.1,0.6-0.3,0.8
		c-0.2,0.2-0.5,0.3-0.8,0.3h-16.6c-0.3,0-0.5-0.1-0.7-0.3C239.2,83.8,239.1,83.5,239.1,83.2z"/>
</g>
</svg>
